# xmcd
#
# Track frame offsets:
# 150
# 13152
# 26501
# 39297
# 51469
# 66134
# 82905
# 94179
# 106704
# 122064
# 136559
# 147678
# 160283
# 172606
#
# Disc length: 2357 seconds
#
#
# Revision: 0
# Processed by: cddbd v1.5.1PL0 Copyright (c) Steve Scherf et al.
# Submitted via: FreeRIP 2.931 
#
DISCID=ad09330e
DTITLE=Viola Quebrada - Viola Quebrada
DYEAR=2000
DGENRE=Folklore
TTITLE0=Viola Quebrada
TTITLE1=Meu Céu
TTITLE2=Curraleira
TTITLE3=Flor do Cafezal
TTITLE4=Caçador
TTITLE5=Moda da Pinga
TTITLE6=Meu Primeiro Amor
TTITLE7=Cana Verde
TTITLE8=Morena Linda
TTITLE9=Pedaço da Minha Vida
TTITLE10=Empreitada Perigosa
TTITLE11=As Mocinhas do sertão
TTITLE12=Gabriel
TTITLE13=Cana Verde - Vinheta
EXTD=
EXTT0=
EXTT1=
EXTT2=
EXTT3=
EXTT4=
EXTT5=
EXTT6=
EXTT7=
EXTT8=
EXTT9=
EXTT10=
EXTT11=
EXTT12=
EXTT13=
PLAYORDER=
